<svg preserveAspectRatio="none" width="100%" height="100%" overflow="visible" style="display: block;" viewBox="0 0 16 16" fill="none" xmlns="http://www.w3.org/2000/svg">
<g id="solar:document-bold">
<path id="Vector" fill-rule="evenodd" clip-rule="evenodd" d="M2.78133 2.11467C2 2.89533 2 4.15267 2 6.66667V9.33333C2 11.8473 2 13.1047 2.78133 13.8853C3.56267 14.666 4.81933 14.6667 7.33333 14.6667H8.66667C11.1807 14.6667 12.438 14.6667 13.2187 13.8853C13.9993 13.104 14 11.8473 14 9.33333V6.66667C14 4.15267 14 2.89533 13.2187 2.11467C12.4373 1.334 11.1807 1.33333 8.66667 1.33333H7.33333C4.81933 1.33333 3.562 1.33333 2.78133 2.11467ZM5.33333 6.16667C5.20072 6.16667 5.07355 6.21935 4.97978 6.31311C4.88601 6.40688 4.83333 6.53406 4.83333 6.66667C4.83333 6.79927 4.88601 6.92645 4.97978 7.02022C5.07355 7.11399 5.20072 7.16667 5.33333 7.16667H10.6667C10.7993 7.16667 10.9265 7.11399 11.0202 7.02022C11.114 6.92645 11.1667 6.79927 11.1667 6.66667C11.1667 6.53406 11.114 6.40688 11.0202 6.31311C10.9265 6.21935 10.7993 6.16667 10.6667 6.16667H5.33333ZM5.33333 8.83333C5.20072 8.83333 5.07355 8.88601 4.97978 8.97978C4.88601 9.07355 4.83333 9.20072 4.83333 9.33333C4.83333 9.46594 4.88601 9.59312 4.97978 9.68689C5.07355 9.78065 5.20072 9.83333 5.33333 9.83333H8.66667C8.79927 9.83333 8.92645 9.78065 9.02022 9.68689C9.11399 9.59312 9.16667 9.46594 9.16667 9.33333C9.16667 9.20072 9.11399 9.07355 9.02022 8.97978C8.92645 8.88601 8.79927 8.83333 8.66667 8.83333H5.33333Z" fill="var(--fill-0, white)"/>
</g>
</svg>
